<?xml version="1.0" encoding="UTF-8"?>
<svg viewBox="0 0 345.47214 533.36053" xmlns="http://www.w3.org/2000/svg">
 <g transform="translate(-32.325 -30.088)">
  <path d="m198.47 535.51c-1.0762-1.7696-2.2473-5.1559-2.6026-7.5251-0.52766-3.5187-0.89923-4.0975-2.0287-3.1601-0.76048 0.63114-1.3827 1.7198-1.3827 2.4193s-1.2659 2.627-2.8132 4.2834c-2.673 2.8614-3.0512 2.9671-7.5881 2.1195-11.976-2.2374-19.599-6.0929-19.599-9.9133 0-3.8816 9.7001-17.952 13.328-19.333 2.0839-0.79306 2.0424-0.89482-1.0202-2.5-1.7559-0.92032-6.3075-4.2373-10.115-7.3711-7.105-5.8484-8.1493-7.7756-8.2246-15.177-0.0175-1.7188-0.6925-3.9985-1.5-5.0661s-1.4682-3.6114-1.4682-5.6529c0-5.8625-6.1384-32.036-20.03-85.406-2.8272-10.862-8.4748-29.795-12.827-43l-3.9547-12-0.10789 16c-0.05934 8.8-0.54193 25.9-1.0724 38s-1.1943 29.039-1.4751 37.643-0.98062 18.953-1.5552 23-0.95117 11.407-0.83688 16.357c0.1244 5.388-0.26367 9.8766-0.96693 11.184-0.6461 1.2013-1.1747 3.852-1.1747 5.8905s-0.86368 5.5555-1.9193 7.8157-2.1665 4.897-2.4686 5.8595c-0.45952 1.4639-1.7852 1.75-8.1092 1.75-6.4202 0-8.4599 0.45433-13.53 3.0138-9.7046 4.8989-22.661 5.7889-26.891 1.8474-4.553-4.2418-1.507-9.1729 11.254-18.218 5.3156-3.768 9.6488-7.3665 9.6293-7.9968s-0.65985-2.2709-1.423-3.6459c-1.1992-2.1607-1.1815-2.7286 0.13062-4.1839 1.3585-1.5068 1.3471-2.4361-0.10797-8.8336-1.6535-7.2698-3.1058-21.472-4.4978-43.982-0.53078-8.5836-1.7628-16.416-3.9321-25-4.0016-15.833-5.9498-30.632-6.6718-50.678-0.31341-8.7021-0.71155-17.874-0.88477-20.382-0.40917-5.9249 1.1615-47.476 1.9263-50.958 0.53232-2.4236 0.17598-2.8325-3.7878-4.3463-5.9807-2.284-10.65-5.9039-13.947-10.813-3.6656-5.458-3.6136-10.418 0.2797-26.627 1.6771-6.9826 4.3674-19.896 5.9784-28.696s3.4204-17.469 4.0209-19.265c2.038-6.095 5.6652-8.8135 30.246-22.669 3.8506-2.1705 5.2867-3.778 7.2925-8.1632 2.3092-5.0484 2.3746-5.5835 0.86687-7.0912-2.6623-2.6623-6.6867-9.4333-9.0881-15.29-2.0427-4.9823-2.5428-5.494-5.5163-5.6436-5.1908-0.26106-7.8498-4.1393-7.8498-11.449 0-5.8106 0.08672-6.0018 3.449-7.6052 2.6559-1.2665 3.2527-2.0116 2.5954-3.2399-0.85309-1.594-0.39784-10.249 0.68814-13.083 0.31615-0.825 0.48231-2.2584 0.36924-3.1853-0.18568-1.5222 5.1298-10.036 9.633-15.429 0.97087-1.1627 4.0152-3.1689 6.7652-4.4581s5.6998-2.9158 6.5552-3.6147 4.0054-1.4836 7-1.744 5.6698-0.54114 5.9448-0.62386c2.0514-0.61709 8.5025 0.14597 12.389 1.4654 2.5746 0.8741 5.76 1.5893 7.0787 1.5893 1.4205 0 2.6279 0.72534 2.9626 1.7798 0.31069 0.9789 1.9117 2.2882 3.5577 2.9095 1.792 0.6764 3.4226 2.2694 4.0638 3.9702 0.58905 1.5623 2.3566 4.1905 3.928 5.8405 1.9482 2.0457 2.9267 4.1928 3.0762 6.75 0.4886 8.3596 0.18311 16.481-0.77023 20.477-0.89434 3.7482-0.79768 4.2935 0.85403 4.8177 2.8831 0.91505 4.0932 4.1181 3.3092 8.7587-0.91471 5.4142-2.7946 8.1586-6.9338 10.123-2.4022 1.1399-3.7143 2.6699-4.5763 5.3362-1.934 5.9824-5.824 11.984-10.189 15.721-3.786 3.2407-3.9911 3.6832-3.1182 6.7269 1.0736 3.7434 5.1747 6.7964 17.616 13.113 5.1692 2.6247 8.975 5.3024 10.24 7.2047 2.3306 3.5047 6.8071 16.486 8.4389 24.473 1.6089 7.8744 1.883 8.1517 6.6077 6.6884 4.5227-1.4007 11.496-7.2825 11.408-9.6224-0.03244-0.8613-2.9584-3.9794-6.5022-6.9291-4.4509-3.7047-7.1383-6.8868-8.691-10.291-1.9289-4.2285-2.5699-4.8473-4.5189-4.3626-3.1922 0.79399-7.6981-3.7331-6.7583-6.7902 0.93422-3.0391 0.8745-3.6556-0.78938-8.1491-1.8066-4.8789-0.9587-7.5832 2.9908-9.5386 2.9109-1.4413 3.059-1.8454 4.1816-11.413 1.0216-8.7077 1.5597-10.439 4.4052-14.176 3.691-4.8476 9.508-8.9638 14.991-10.608 3.2156-0.96434 3.75-1.5389 3.75-4.032 0-1.5991-0.46366-3.7738-1.0304-4.8327-1.3025-2.4337 0.98518-7.2124 4.5805-9.5681 1.9217-1.2592 3.775-1.4948 7.9225-1.0074 3.5645 0.41894 7.3976 0.1146 11.221-0.89091 7.3036-1.9209 13.86-0.63085 18.414 3.6232 1.7074 1.595 3.3499 2.8999 3.65 2.8999 1.0091 0 11.243-10.858 11.243-11.928 0-2.1854 8.2246-7.0716 11.903-7.0716 2.5048 0 5.0848-1.0535 8.4638-3.4558 7.7932-5.5408 16.82-5.9421 24.004-1.0672 1.9646 1.3333 3.8042 2.0486 4.0878 1.5897s2.6385-1.8323 5.233-3.0518c3.8338-1.8021 6.021-2.1437 11.678-1.8241 6.9577 0.39314 6.962 0.39519 11.625 5.6013 2.5656 2.8644 5.5289 5.2124 6.5852 5.2178s4.2748 1.1058 7.1521 2.4454c6.2266 2.8989 9.2594 7.2068 9.2648 13.16 0.0023 2.5725 0.7407 5.052 1.9696 6.6143 1.1668 1.4834 1.9794 4.0786 1.9992 6.3849 0.0861 10.023-0.7339 19.171-1.977 22.055-1.3184 3.0593-1.2347 3.315 2.4041 7.3426 3.5809 3.9636 3.7365 4.4165 3.1024 9.0269-0.4533 3.2959-0.1463 6.6469 0.9563 10.44 1.5186 5.2237 1.5114 5.7762-0.1099 8.5209-2.5706 4.3516-13.21 9.2045-18.371 8.3792-2.5817-0.41283-5.0463-0.112-7.1978 0.87857-2.6663 1.2276-4.4057 1.3117-9.3982 0.4544-5.5497-0.95296-6.3677-0.86201-8.6921 0.96635l-2.5658 2.0183 3.8297 2.1524c5.2368 2.9433 21.024 15.077 29.704 22.83 6.9049 6.1676 7.2184 6.6494 9.1762 14.103 1.1148 4.2447 2.3149 12.443 2.6669 18.218 0.6355 10.428 2.7025 20.292 4.782 22.819 0.8248 1.0026 0.3822 1.8938-1.8445 3.714-1.6114 1.3172-3.1931 2.4111-3.5148 2.4309s-0.6284 7.1235-0.6814 15.786c-0.0837 13.682-2.7198 50.61-3.7294 52.243-0.1957 0.31664-0.8508 6.8602-1.4557 14.541-1.0999 13.965-4.4688 30.284-8.2407 39.919-2.137 5.4588-2.0236 7.7453 1.2175 24.546 1.5538 8.0541 2.3723 17.657 2.0535 24.089-0.1529 3.0846-13.762 6.9105-24.582 6.9105-3.5084 0-6.6524 0.44244-6.9866 0.9832s-1.2117 4.2533-1.95 8.25c-1.6497 8.9312-4.5331 20.71-8.699 35.536l-3.1665 11.269 4.4991 4.231c5.1097 4.8052 13.449 16.262 16.056 22.059 3.6113 8.029 1.7016 9.9632-7.1082 7.1994-8.8308-2.7704-17.311-7.4252-21.245-11.662l-3.6032-3.8801-3.5806 5.7574c-3.9745 6.3908-9.729 12.662-14.04 15.3-4.6471 2.8437-9.9834 0.37194-11.205-5.19-1.2388-5.6404 3.2293-18.308 10.53-29.852 1.5651-2.475 2.8811-5.3166 2.9243-6.3146 0.0727-1.6772-2.8742-9.8709-5.0066-13.921-1.6617-3.1561-5.9632-21.1-7.482-31.212-0.82174-5.471-1.5928-10.02-1.7135-10.108s-3.5944-1.1454-7.7194-2.3483c-12.076-3.5217-12.996-4.0136-13.03-6.9672-0.05278-4.5625-1.5056-0.45673-4.9085 13.871-1.7634 7.425-4.5534 18.351-6.2001 24.28-5.0056 18.024-4.7061 36.496 0.66844 41.22 1.2516 1.1 2.9456 4.25 3.7645 7 1.8368 6.1683 2.0179 18.996 0.28852 20.432-1.7205 1.4279-14.807 4.0685-20.163 4.0685-3.9384 0-4.674-0.36945-6.406-3.2174zm14.486-1.9094c8.1805-1.2938 9.5-1.7744 9.5-3.4596 0-1.0383-0.69256-1.2778-2.432-0.84128-1.3376 0.33571-4.218 0.70218-6.4009 0.81438s-4.7018 0.81215-5.5974 1.5554c-1.3982 1.1604-1.9776 1.0233-4.0991-0.96964-1.3589-1.2766-2.4707-2.8626-2.4707-3.5243s-0.74559-1.8208-1.6569-2.5757c-1.5094-1.2503-1.5929-1.0307-0.93797 2.4666 1.2885 6.8809 2.6399 8.8674 5.5332 8.1331 1.4089-0.35753 5.2616-1.0771 8.5616-1.599zm50.502-2.3744c3.1884-1.6488 7.2845-7.1396 11.389-15.267 2.372-4.6967 2.5885-5.971 1.9964-11.75-0.525-5.1245-1.014-6.4819-2.3349-6.4819-0.9189 0-2.539-0.63492-3.6003-1.4109-1.7379-1.2708-2.1096-1.1466-3.7421 1.25-5.7421 8.4298-9.4991 18.203-10.382 27.007-0.48991 4.8874-0.31352 6.5503 0.76744 7.2347 1.9164 1.2132 2.5563 1.1502 5.9061-0.58206zm-70.392-9.2487c2.39-4.5375 3.9769-8.25 3.5265-8.25s-2.0435 2.25-3.5402 5-3.0308 5.0028-3.4089 5.0063-1.433 1.3167-2.3441 2.9182-2.7111 3.1294-4 3.3951-0.59638 0.41511 1.539 0.3318c3.8046-0.14842 3.9695-0.31686 8.2278-8.4015zm-12.61 6.8181c0-0.51254-1.3668-1.9052-3.0373-3.0947-2.1945-1.5626-2.8695-2.6915-2.4326-4.0681 0.41913-1.3206 0.12369-1.9053-0.96266-1.9053-1.7426 0-2.1396 2.5283-0.55108 3.5101 0.55897 0.34546 0.74391 1.0689 0.41097 1.6076-0.36849 0.59623-1.0596 0.62315-1.7663 0.06879-1.7493-1.3722-6.661-2.3514-6.661-1.328 0 1.599 2.8302 3.3033 7.7172 4.6473 5.9588 1.6388 7.2828 1.741 7.2828 0.56226zm27.816-1.8095c-0.35586-3.0831-3.4577-4.3569-4.4313-1.8197-0.71572 1.8651 1.2371 4.5612 3.3038 4.5612 0.98443 0 1.3433-0.87246 1.1276-2.7414zm6.4564-1.3231c-0.27837-1.0645-1.3536-1.9354-2.3895-1.9354-2.1597 0-2.2745 0.40058-0.86812 3.0285 1.2891 2.4088 3.9407 1.5191 3.2576-1.0931zm-28.88-0.21389c0.84843-1.3628 0.77782-1.9839-0.30214-2.6575-2.1656-1.3507-4.0907-0.11945-4.0907 2.6163 0 2.8811 2.6096 2.9056 4.3928 0.04122zm34.607 0.77847c0-0.825-0.675-1.5-1.5-1.5s-1.5 0.675-1.5 1.5 0.675 1.5 1.5 1.5 1.5-0.675 1.5-1.5zm91.464-1.75c-1.5206-5.0969-6.9276-12.987-15.097-22.029-3.5648-3.9459-4.0326-4.1507-9.5566-4.1848-6.3555-0.03924-6.297-0.11595-5.1605 6.761 0.8059 4.8772 5.6134 9.5276 17.009 16.453 9.5035 5.7758 13.944 6.816 12.805 3zm-131.44-2.2742c0.69572-0.83829 0.95423-1.8349 0.57448-2.2146-0.83409-0.83408-3.8203 0.9161-4.3684 2.5602-0.56969 1.7091 2.3061 1.4471 3.7939-0.34561zm40.98-2.0766c0-3.0756-1.9539-8.1675-3.3378-8.6986-0.65891-0.25285-5.015-0.17643-9.6801 0.16982-7.2179 0.53572-8.4697 0.89037-8.3988 2.3796 0.04584 0.9625 0.15834 3.2125 0.25 5l0.16667 3.25h10.5c10.001 0 10.5-0.09979 10.5-2.1008zm-52 0.60078c0-0.55-0.45-1-1-1s-1 0.45-1 1 0.45 1 1 1 1-0.45 1-1zm22.716-3.8979c1.2564-1.8688 2.2844-3.9714 2.2844-4.6724 0-1.8892-6.6949-3.7551-13.252-3.6933-4.7724 0.04495-6.1027 0.4574-7.7702 2.409-4.5051 5.2726-4.4288 5.6539 1.2749 6.3735 2.8858 0.36408 6.5969 1.2682 8.2469 2.0093 4.4004 1.9762 6.6551 1.3827 9.2156-2.426zm19.346-7.9098 3.5618-0.69237-1.9954-10.843-1.9954-10.843 3.8089-14.657c4.1885-16.118 5.2848-20.611 8.8212-36.157l2.3886-10.5-8.8563-0.65291c-4.871-0.35911-9.405-1.0768-10.076-1.5948s-1.9434-1.1982-2.8284-1.5116c-1.458-0.51628-1.588 2.1654-1.3864 28.595 0.15675 20.542-0.17944 31.825-1.1371 38.164-0.74779 4.95-1.3614 11.812-1.3636 15.25l-0.00402 6.25 3.75-0.05763c2.0625-0.0317 5.3528-0.3692 7.3118-0.75zm-16.066-5.1924c0.01438-1.375 0.75397-4.75 1.6436-7.5 1.3391-4.1398 1.6583-10.902 1.8553-39.306 0.21701-31.295 0.09606-34.237-1.3782-33.524-2.0964 1.0139-12.006 1.0532-14.721 0.05846-1.9992-0.73264-2.1384-0.36384-2.784 7.3772-0.94531 11.335 1.043 31.239 4.4846 44.894 3.8598 15.314 3.7921 16.291-1.6292 23.5l-4.5121 6 4.7726 0.63291c2.625 0.3481 6.1226 1.064 7.7726 1.5908 3.4068 1.0878 4.4543 0.22012 4.4955-3.7237zm-12.55-8.2696c1.6859-3.1305 1.6819-3.5878-0.09253-10.75l-1.8533-7.4804-8.501-0.07909c-4.6755-0.0435-9.738-0.38957-11.25-0.76905-2.3352-0.58609-2.749-0.37851-2.749 1.3788 0 1.1378 0.6984 3.4193 1.552 5.0699 1.1349 2.1946 2.0469 2.8442 3.3934 2.4168 1.3299-0.42208 2.8524 0.60546 5.4812 3.6991 3.4992 4.1181 10.213 9.7835 11.594 9.7835 0.36541 0 1.4567-1.4713 2.4252-3.2696zm-107.14-1.1213c2.5418-0.76497 8.1548-3.4289 12.473-5.9199s9.623-4.855 11.788-5.2534c4.4913-0.82666 5.3986-1.7905 5.4202-5.7578l0.01531-2.822-5.3636 0.67014c-2.95 0.36857-8.6108 0.16631-12.58-0.44947l-7.216-1.1196-7.2897 4.5435c-16.363 10.199-19.288 17.499-7.01 17.499 2.8276 0 7.2207-0.62588 9.7625-1.3908zm213.41 0.58817c0.6682-0.42462 1.6938-3.2302 2.2792-6.2347s1.6989-7.9376 2.4746-10.963 2.1297-8.291 3.009-11.702c1.5532-6.0252 4.5181-21.691 4.5208-23.887 8e-4 -0.61037-3.8442-1.621-8.7486-2.2994-4.8125-0.66571-9.8293-1.4385-11.148-1.7173l-2.3986-0.50696 0.8789 22.806c0.4833 12.543 0.8102 25.276 0.7263 28.295-0.0906 3.2645 0.3226 5.7913 1.0197 6.2347 1.5285 0.97223 5.8398 0.95679 7.3872-0.02645zm-12.715-19.197c-0.275-10.175-0.4528-23.091-0.3951-28.702l0.1049-10.202-2.9683-0.65195c-1.6325-0.35857-5.8422-0.34416-9.3549 0.03201-6.3624 0.68136-6.3866 0.69596-6.3852 3.8544 0.00458 10.624 10.756 51.607 14.109 53.78 0.7645 0.49575 2.2901 0.78629 3.3901 0.64564 1.9392-0.24796 1.9848-0.81772 1.5-18.756zm-110 13.5c-0.68469-0.825-2.2023-1.4934-3.3724-1.4853-1.9945 0.01382-1.9712 0.10149 0.37244 1.402 3.3673 1.8685 4.5078 1.9001 3 0.08331zm-63.244-2.25c0.53178-1.6188-1.4896-1.521-5.256 0.2542l-3 1.414 3.9227-0.20909c2.1575-0.11501 4.1075-0.7716 4.3333-1.4591zm0.68785-14.867c1.1712-0.44945 2.9938-7.2788 2.164-8.1086-0.18177-0.18177-1.5472 0.1321-3.0343 0.69749s-7.2048 1.028-12.706 1.028c-9.9075 0-9.9958 0.02132-9.3225 2.25 0.98033 3.2448 1.6031 3.6927 6.5267 4.6939 4.1938 0.8528 13.521 0.53335 16.372-0.56074zm75.541-1.6332c-0.02666-5.6586-0.89101-6.1354-11.925-6.5786l-10.06-0.40405v4.4496c0 2.4473 0.3 4.7496 0.66667 5.1163s5.3167 0.66667 11 0.66667h10.333l-0.01531-3.25zm-93.582-44c-1.0762-57.698-0.26588-111.33 2.274-150.5 0.42265-6.5187 0.25036-8.2661-0.82098-8.3265-0.74574-0.04208-2.2559-0.25073-3.3559-0.46367s-5.15-0.65959-9-0.99256-7.5384-0.77596-8.1965-0.98442c-1.973-0.62498-2.767 7.6981-2.6728 28.017 0.2274 49.046 2.7127 79.181 8 97 2.6381 8.8908 3.6476 14.332 3.8964 21 0.44167 11.838 2.1832 33.221 3.4207 42 0.5427 3.85 1.0014 7.5326 1.0194 8.1836s1.2702 1.371 2.7827 1.6002 2.8845 0.48401 3.0488 0.56642-0.01381-16.613-0.39595-37.1zm15.926 36.314c2.1061-0.48879 4.06-1.1194 4.342-1.4014 0.38808-0.38809 2.2562-26.284 3.1497-43.662 0.04242-0.825 0.36052-18.6 0.70688-39.5 0.41652-25.133 1.1585-42.063 2.1913-50 0.85885-6.6 1.5304-13.462 1.4923-15.25-0.09304-4.3675 1.3556-4.1126 2.8414 0.5 0.66433 2.0625 1.5403 4.2 1.9467 4.75s1.7467 4.375 2.9786 8.5 3.2716 10.65 4.5327 14.5 3.6867 11.95 5.3902 18 4.6399 16.4 6.5252 23c4.0811 14.287 10.556 40.882 13.511 55.5 1.1676 5.775 2.6885 13.2 3.3798 16.5l1.2569 6 5.9631 0.64147c3.2797 0.3528 8.1581 0.6903 10.841 0.75l4.8778 0.10853-0.87781-4.25c-0.4828-2.3375-0.87781-11.436-0.87781-20.219v-15.969l-4.8639-1.8061c-2.6751-0.99336-7.1432-2.1341-9.929-2.535-4.481-0.64487-5.154-1.0614-5.836-3.6114-1.269-4.745-1.8938-11.538-2.0339-22.11-0.11691-8.8276-0.44964-10.586-2.8379-15-3.5946-6.6431-4.3296-11.281-2.8914-18.244 1.0295-4.9842 0.96597-6.213-0.46399-8.9782-3.6931-7.1417-8.781-31.575-10.053-48.278-0.37275-4.8936-1.9461-12.743-3.7083-18.5-1.6834-5.5-3.2118-10.511-3.3963-11.136-0.48355-1.6369-9.7707-0.449-10.848 1.3875-0.7117 1.2137-2.5361 1.3438-10.488 0.74754-8.437-0.63255-9.9082-1.0254-11.903-3.1782-1.3177-1.4218-3.1276-2.3226-4.2972-2.1388-2.2098 0.34733-1.9572-1.9748-3.3518 30.818-2.9975 70.487-3.0042 73.627-0.34589 161.75 0.096 3.1824 0.19313 3.2495 4.6731 3.2261 2.5163-0.01312 6.2982-0.42377 8.4042-0.91255zm223.93-29.177 9.0021-2.1134-0.663-8.6366c-0.6263-8.1577-2.416-21.008-4.5946-32.99-0.5354-2.9441-1.6955-15.094-2.5781-27s-1.7874-21.834-2.0108-22.062c-0.616-0.62898-23.163-0.66562-23.79-0.03865-0.3008 0.30067 0.1777 2.7757 1.0633 5.5 1.2629 3.885 1.7745 11.855 2.3718 36.953 0.4189 17.6 1.089 34.138 1.4891 36.75 0.8758 5.7185-0.9306 6.6281-1.9858 1-0.3866-2.0625-1.0552-18.6-1.4857-36.75-0.6625-27.934-1.0629-33.82-2.6084-38.339-1.7444-5.101-1.9569-5.3126-4.7701-4.75-1.6194 0.32389-6.3284 0.58888-10.464 0.58888h-7.5201l0.7573 7.25c0.7354 7.0404 2.3011 68.814 1.7661 69.683-0.1466 0.23834-0.7915-0.09158-1.4331-0.73314-0.8302-0.83023-1.2346-10.467-1.4027-33.433-0.2051-28.012-0.9556-40.72-2.4904-42.171-0.2239-0.21163-3.7685-0.54482-7.8768-0.74041l-7.4697-0.35563-0.8155 4c-0.44853 2.2-0.77573 18.512-0.7271 36.25 0.06024 21.975-0.24714 32.25-0.9648 32.25-0.69926 0-1.1198-7.3095-1.2512-21.75-0.10891-11.962-0.24071-25.8-0.29288-30.75s0.45374-11.696 1.1242-14.99 1.0831-6.1265 0.91679-6.2928-1.8763-0.55774-3.8-0.86991c-3.4907-0.56646-3.4998-0.55783-4.5625 4.2928-1.3839 6.3167-3.0403 16.573-3.6819 22.798-0.2799 2.7157-1.4408 6.8626-2.5797 9.2153-2.0029 4.1375-2.0356 4.9363-0.99838 24.367 0.58983 11.049 1.0724 20.976 1.0724 22.059 0 1.2387-1.0207 2.343-2.75 2.9749l-4.25 1.5524c-3.9697 1.4488 13.137 6.3932 22.119 6.3932 2.7474 0 6.9113-0.48249 9.2533-1.0722 3.5971-0.90577 5.8002-0.68317 14.193 1.434 13.456 3.3945 31.56 3.6071 44.689 0.52474zm-88.112-19.387c0.35328-4.4 0.2479-13.175-0.23418-19.5s-0.88363-15.273-0.89233-19.884c-0.01943-10.29-1.5428-15.793-4.9542-17.896-1.4089-0.86885-3.9829-2.897-5.72-4.507-2.808-2.6025-4.3613-3.0782-14-4.2874-12.921-1.621-24.982-1.8162-25.846-0.41829-0.34225 0.55377-4.5313 3.5338-9.309 6.6222-14.486 9.3644-13.39 7.0828-12.664 26.342 0.34235 9.0908 1.1524 20.129 1.8 24.529l1.1776 8 4.5 2.189c6.3425 3.0853 12.659 5.0706 18.651 5.862 4.7597 0.62868 5.2761 0.48965 6.7957-1.8296 2.6797-4.0898 2.822-8.5596 0.66537-20.896-1.8631-10.657-1.9199-12.31-0.65147-18.967 0.76422-4.0108 1.1716-7.6448 0.90536-8.0756s0.04486-0.78333 0.69139-0.78333c0.8673 0 0.95593 1.7698 0.33805 6.75-1.0663 8.5948-0.71213 16.073 1.1395 24.057 0.80575 3.4744 1.465 7.7856 1.465 9.5806 0 6.0306 6.1969 9.5569 16.993 9.6699 3.0286 0.0317 7.3066 0.39518 9.5066 0.80774 8.8445 1.6586 8.9226 1.599 9.6423-7.3654zm-72.634-2.75c-1.708-4.9742-3.2238-26.815-3.0215-43.537 0.15951-13.185-0.10056-19.175-0.82205-18.935-1.8017 0.60058-2.63 5.7001-3.2845 20.221-0.64916 14.403 0.90884 38.302 2.7172 41.681 1.089 2.0348 5.0916 2.5508 4.4109 0.56858zm170.3-36.25c2.1092-8.2353 4.1261-23.516 5.2136-39.5 0.6175-9.075 1.8056-21.9 2.6403-28.5s1.7627-19.762 2.0623-29.25l0.5447-17.25h-2.6937c-1.4815 0-4.5991 0.47979-6.9279 1.0662-4.8728 1.227-4.6456-1.0502-2.1384 21.434 1.3841 12.412 2.0481 33.013 1.6649 51.652l-0.1779 8.6522-3.0913 1.0776c-2.8785 1.0034-3.0534 1.3372-2.5411 4.8478 0.3026 2.0736 0.8749 8.0452 1.2716 13.27 0.3968 5.225 0.9089 8.6 1.1382 7.5 0.8536-4.0964 2.4546-4.0964 1.8416 0-1.4174 9.472-1.6559 13.004-0.7428 11 0.5013-1.1 1.3724-3.8 1.9359-6zm-181.05-25c-0.36772-21.213-0.04302-34.49 1.1556-47.253 1.3511-14.386 0.91214-19.238-1.7425-19.263-1.2943-0.01187-1.3707-0.20541-0.33908-0.85937 1.0942-0.69365 1.0051-2.1465-0.5-8.1534-1.7663-7.0493-1.9795-7.3717-5.9925-9.0619l-4.1611-1.7525-1.123 6.449c-1.7989 10.33-1.9644 27.928-0.35627 37.893 1.5963 9.892 6.6136 31.094 9.2524 39.099 0.97044 2.9439 1.3658 5.9027 0.9353 7-1.1761 2.998-0.9918 12.512 0.32742 16.901l1.2025 4 0.75732-7.5c0.41653-4.125 0.67932-12 0.58398-17.5zm88.253 12.559c0.01028-3.5324 2.2452-17.362 5.9083-36.559 3.8921-20.398 4.5806-26.3 4.5489-39-0.03329-13.327-0.93363-23.018-2.3518-25.313-0.63293-1.0241-1.7334-1.0606-5.2535-0.17422l-4.4529 1.1212 0.71092 5.6828c0.391 3.1256 0.74889 8.2986 0.7953 11.496 0.07126 4.9092 0.35642 5.7852 1.8344 5.6348 3.4013-0.34598 3.7158 0.15709 0.86044 1.3762-2.6912 1.149-3.0479 1.987-5.1955 12.205-2.9751 14.155-2.9614 19.149 0.08504 30.874 3.0226 11.634 3.1045 14.559 0.5 17.87-2.1371 2.7168-2.4847 7.0459-1.3347 16.623 0.5798 4.829 0.78908 5.203 1.9913 3.5589 0.73888-1.0105 1.3481-3.4387 1.3538-5.3961zm-72.861-5.5584c2.9428-1.9248 7.5813-5.1016 10.308-7.0597l4.9573-3.5602-8.5836 0.54368c-4.721 0.29903-9.276 0.80936-10.122 1.1341-1.0867 0.41701-1.637 2.3313-1.8736 6.5179-0.18429 3.2601-0.26779 5.9266-0.18556 5.9256s2.5572-1.5766 5.5-3.5014zm64.457-3.0822c-0.33385-0.86998-0.60699-2.22-0.60699-3 0-0.97938-1.1603-1.4056-3.75-1.3776l-3.75 0.04064 3.4622 2.9594c3.8317 3.2752 5.5709 3.791 4.6448 1.3776zm-56.552-9.2624c5.8052-0.36069 15.255-0.34483 21 0.03527s16.298 1.0054 23.451 1.3896l13.006 0.69849 1.2707-2.3896c1.7995-3.384 1.7707-6.7152-0.17993-20.83-1.5499-11.216-1.574-13.136-0.24454-19.5 3.008-14.398 3.7528-24.516 2.5811-35.059-1.5723-14.147-2.6925-30.777-2.1718-32.244 1.1042-3.1122 2.0965 0.58144 2.7561 10.259 0.39422 5.7838 1.0025 10.693 1.3518 10.908 0.94746 0.58556 11.49-1.4477 12.481-2.407 0.47238-0.45757-0.0394-3.227-1.1408-6.1731-1.0986-2.9388-2.9975-9.6183-4.2196-14.843-3.911-16.72-5.8521-21.793-9.3329-24.392-1.7399-1.299-8.2522-4.0548-14.472-6.124l-11.308-3.7622-1.5023 2.1448c-2.3465 3.3501-7.3443 5.4174-13.365 5.5281-6.194 0.11391-10.757-1.7387-15.938-6.4704-2.1527-1.9662-3.9044-2.8097-4.9542-2.3858-0.89323 0.36071-3.8071 1.3181-6.4752 2.1274-13.995 4.2454-16.946 7.5496-24.963 27.946-1.9698 5.0115-5.3752 12.782-7.5676 17.269l-3.9862 8.1571 5.9056 2.9812c6.9937 3.5304 7.9626 3.6436 7.9626 0.93016 0-1.128 1.7588-6.1905 3.9085-11.25s4.919-12.687 6.1541-16.949 2.6263-7.75 3.0915-7.75 0.84586 0.20304 0.84586 0.45121c0 1.8293-3.3074 12.44-5.6525 18.134-3.9688 9.6371-3.9148 18.695 0.18154 30.414 2.6828 7.6756 2.9709 9.7123 2.9709 21 0 6.875-0.39747 19.753-0.88326 28.619s-0.56294 18.255-0.17145 20.865l0.71182 4.7467 4.1714-0.70943c2.2943-0.39019 8.9212-1.0046 14.726-1.3652zm97.251-14.406c-3.8696-12.61-10.068-30.255-14.14-40.25l-3.6662-9-0.67677 14.293c-0.38326 8.0944-1.532 18.069-2.6488 23-1.0846 4.7889-2.2078 10.355-2.496 12.368l-0.52394 3.6612 6.6727 1.5593c8.3708 1.9561 10.644 2.3123 15.842 2.4821l4.169 0.13618-2.5317-8.25zm33.49 6.5854 9.2966-0.63479-0.6285-3.1003c-0.3457-1.7052-2.1491-6.4753-4.0075-10.6-4.3892-9.742-14.457-35.421-14.457-36.874 0-0.61917-0.3895-1.1258-0.8655-1.1258s-2.7028 5.5125-4.9483 12.25-5.858 17.425-8.0277 23.75-4.2689 13.032-4.6649 14.904l-0.72 3.4037 9.8632-0.6686c5.4248-0.36772 14.047-0.95424 19.16-1.3034zm23.603-20.878c-0.0835-12.399-0.3898-22.781-0.6806-23.072s-0.8503 0.96599-1.2433 2.7928-2.2213 8.1489-4.0626 14.049-3.97 14.33-4.7303 18.733l-1.3825 8.0053 3.0998 0.49746c1.705 0.2736 4.2249 0.67003 5.5999 0.88097s2.7366 0.44479 3.0257 0.51969 0.4574-10.008 0.3739-22.407zm-46.451-2.4572c5.1511-14.079 10.051-29.375 10.051-31.374 0-0.89414-0.3375-1.6783-0.75-1.7426-3.2155-0.50095-37.253-1.2622-37.252-0.83316 9.2e-4 0.3025 0.37444 0.9775 0.83003 1.5 2.0515 2.3528 16.309 41.031 18.746 50.854 0.6994 2.8198 0.7759 2.747 2.6267-2.5 1.0485-2.9724 3.6351-10.129 5.748-15.904zm36.506 4.5c1.5222-5.5 4.0642-14.725 5.6488-20.5 1.5847-5.775 2.8846-12.82 2.8888-15.655l0.0077-5.1548-4.25 0.46864c-2.3375 0.25774-7.2612 0.88992-10.942 1.4048s-8.9679 0.93621-11.75 0.93621-5.0585 0.14332-5.0585 0.3185c0 1.8866 4.4824 14.299 9.9962 27.682 8.699 21.113 9.2155 22.21 10.02 21.277 0.3688-0.42742 1.916-5.2771 3.4383-10.777zm-184.2-43.036 0.51633-6.0359-3.2196 0.37587-3.2196 0.37587 2.0381 6.9208c2.2659 7.6943 3.1173 7.3356 3.8848-1.6366zm179.24 1.4286c13.789-1.5129 13.057-1.0762 12.651-7.5427l-0.3487-5.5619-6.6513 0.85593c-3.6582 0.47076-20.317 0.81577-37.02 0.7667l-30.369-0.08924 0.65088 5.538c0.35799 3.0459 0.89766 5.786 1.1993 6.0892 0.79389 0.79802 31.306 1.7508 41.887 1.308 4.95-0.20714 13.05-0.82097 18-1.3641zm-207-6.8193-7-0.57341-0.30154-4.6703c-0.16584-2.5687-0.924-5.1869-1.6848-5.8183-1.1607-0.96331-1.2891-0.21192-0.79809 4.6703 0.32185 3.2001 1.08 6.1489 1.6848 6.553s4.2496 0.66211 8.0996 0.57341l7-0.16127-7-0.57342zm4.0114-6.1408c0.89841-5.3176-0.12768-6.1371-3.0716-2.4532-1.8835 2.357-2.6377 2.7226-3.6104 1.75-1.9048-1.9048-2.4961-1.4853-2.4961 1.7705 0 2.8622 0.19495 3 4.2454 3 4.1854 0 4.2552-0.05749 4.9326-4.0674zm4.4886-0.49164c0-1.8925-0.45-3.441-1-3.441s-1 1.8266-1 4.059c0 2.4514 0.39607 3.8142 1 3.441 0.55-0.33992 1-2.1665 1-4.059zm11 0.05902c0-3.4815-0.02381-3.5-4.5-3.5s-4.5 0.01852-4.5 3.5 0.02381 3.5 4.5 3.5 4.5-0.01852 4.5-3.5zm4.2198-0.45597c-0.24572-1.6742-0.84569-3.044-1.3333-3.044-1.0104 0-1.2194 5.3338-0.24702 6.3062 1.2684 1.2684 2.0181-0.27911 1.5803-3.2621zm5.7802 1.4912c0-0.80565-0.96823-1.983-2.1516-2.6163-1.8577-0.99421-2.0626-0.91955-1.5 0.5466 0.3584 0.93397 0.65163 2.1113 0.65163 2.6163s0.675 0.91821 1.5 0.91821 1.5-0.65917 1.5-1.4648zm-43-2.8959c0-3.3074-0.08321-3.3707-5.25-3.9913-9.5852-1.1513-9.9166-1.0612-9.5634 2.602 0.29874 3.0984 0.54662 3.2777 5.3134 3.8429 9.8331 1.166 9.5 1.252 9.5-2.4536zm222.96 1.2687 9.5429-1.1563-0.7659-12.126c-1.4161-22.418-1.2233-27.448 0.9678-25.257 0.386 0.38604 0.9485 6.8735 1.25 14.417l0.5481 13.715 2.5-0.13305c1.9106-0.10168 13.556-2.3598 14.702-2.8508 0.111-0.04756-0.4215-3.2207-1.1833-7.0513s-1.6212-11.465-1.9097-16.965c-0.8446-16.102-1.772-17.831-15.442-28.784-11.451-9.1754-18.482-14.271-22.883-16.585-1.9775-1.0396-2.3844-0.83853-3.7854 1.8706-1.941 3.7535-8.9843 23.059-10.409 28.529-0.5772 2.217-1.6941 4.9125-2.482 5.99-1.357 1.8558-1.526 1.7222-3.2046-2.5309-4.1814-10.595-16.291-31.992-19.714-34.832-1.1588-0.96172-2.9423-0.10812-9.2908 4.4468-4.3212 3.1003-10.341 7.0037-13.378 8.6742-5.7974 3.1892-13.024 9.3925-13.017 11.174 0.00206 0.57588 2.0433 1.8858 4.536 2.911 7.3178 3.0095 8.9894 5.9864 14.395 25.636 1.9881 7.2263 6.1705 20.564 7.6229 24.31 0.51747 1.3344 0.14244 1.9559-1.4281 2.3666-1.1936 0.31213-2.1299 1.3608-2.1299 2.3856 0 1.467 0.93939 1.896 4.75 2.1695 12.761 0.9159 51.706 0.70675 60.207-0.32335zm-244.14-3.658c0.30686-3.1826 0.22947-3.25-3.731-3.25-3.5243 0-4.1284 0.33522-4.6987 2.6073-0.79445 3.1654 0.87606 4.5214 5.1163 4.1532 2.5884-0.22478 3.043-0.70641 3.3134-3.5105zm4.1866 0.80902c0-1.6175-0.45-3.2191-1-3.559-0.59512-0.3678-1 0.82295-1 2.941 0 1.9575 0.45 3.559 1 3.559s1-1.3234 1-2.941zm38.228-10.863 9.7279-9.7806-1.0359-6.4325c-0.56975-3.5379-1.2056-6.6021-1.413-6.8095-0.4322-0.4322-28.507 19.822-28.507 20.566 0 0.80728 10.145 12.262 10.849 12.249 0.35808-0.00641 5.0286-4.4129 10.379-9.7922zm220.34 8.7513c9.2098-1.6336 12.406-2.8572 11.772-4.5071-0.7055-1.8385-2.8066-1.8128-11.391 0.13979-5.6353 1.2817-6.9474 1.9427-6.9474 3.5 0 1.0559 0.1424 1.9198 0.3163 1.9198s2.9865-0.47364 6.25-1.0525zm-274.06-8.6975c0.43179-4.2625 0.88827-18.325 1.0144-31.25 0.18042-18.489 0.59941-24.931 1.9649-30.212 1.8826-7.2808 4.4358-12.023 4.4617-8.2879 0.00763 1.1-0.61944 6.16-1.3935 11.244-0.81385 5.3458-1.4581 17.787-1.5277 29.5-0.06616 11.141-0.23414 22.605-0.3733 25.476-0.15544 3.2073 0.18727 5.3892 0.88875 5.6584 1.1132 0.42719 9.5839 1.7382 22.205 3.4368 3.5399 0.47639 6.25 0.46223 6.25-0.03266 0-0.48059-1.1145-1.9883-2.4766-3.3504-4.165-4.165-4.4218-5.3618-2.9889-13.933 1.2173-7.2814 10.604-57.216 13.576-72.225 0.97149-4.905 0.97417-6.793 0.01264-8.9034l-1.2203-2.6783-1.62 2.4034c-0.89099 1.3218-1.8121 2.6284-2.0468 2.9034s-2.3486-1.7097-4.6974-4.4105l-4.2705-4.9105-4.8842 2.8021c-2.6863 1.5411-6.9092 3.9029-9.3842 5.2483-6.5026 3.5349-14.231 8.7541-16.212 10.948-2.7855 3.0854-4.441 8.1862-6.2715 19.323-1.4945 9.093-4.4492 22.978-7.4477 35-0.48014 1.925-1.429 6.434-2.1087 10.02-1.1407 6.0187-1.0759 6.8331 0.84314 10.595 2.9283 5.7399 11.877 13.063 16.309 13.346 0.33664 0.02153 0.96535-3.4484 1.3971-7.7109zm-4.6289-16.894c-1.2214-1.4717-1.103-1.5648 1.1276-0.8876 3.511 1.066 4.8511 2.5318 2.3146 2.5318-1.1426 0-2.6916-0.73991-3.4422-1.6442zm71.164 20.583c1.199-1.6838 3.2835-5.1369 4.6322-7.6734 2.423-4.5571 2.4306-4.6523 0.6381-8.0142-1.7856-3.3488-1.7803-3.4299 0.33069-5.1517 1.5151-1.2358 2.0012-2.5002 1.6558-4.307-0.26892-1.4067 0.00344-2.862 0.60523-3.2339s1.0942-2.0138 1.0942-3.6486c0-1.7196 0.6322-3.215 1.5-3.548 0.825-0.31659 1.5-1.402 1.5-2.4119 0-2.2386 3.6897-5.006 5.664-4.2484 1.4678 0.56326 1.4248-4.7725-0.21149-26.201-0.44864-5.8755-0.33278-6.6787 0.72125-5 0.73371 1.1685 1.3914 6.3651 1.582 12.5 0.17943 5.775 0.53769 11.498 0.79614 12.718l0.46991 2.2176 5.0331-2.9676c2.7682-1.6322 5.5121-2.9676 6.0975-2.9676 0.64868 0 0.8079-1.022 0.40767-2.6167-0.36121-1.4392-0.91226-4.0267-1.2246-5.75-0.89173-4.9209-5.3765-20.841-6.4205-22.792-1.3519-2.526-26.265-17.158-27.357-16.066-0.30714 0.30713-0.55843 1.5334-0.55843 2.7251 0 3.5237-1.1616 3.6696-3.5408 0.44468l-2.2343-3.0285-1.0537 3.0227c-1.408 4.039 0.32484 19.948 5.9427 54.561 0.53562 3.3 1.3998 8.7 1.9204 12s1.3908 8.4708 1.9339 11.491l0.98741 5.4907-7.4782 7.0093c-4.113 3.8551-7.478 7.3468-7.4778 7.7593s2.6698 0.75 5.9323 0.75c5.4761 0 6.0994-0.23523 8.1119-3.0615zm-17.719-20.623 11.825-8.8152-0.60163-4.5c-0.33089-2.475-0.85217-6.1758-1.1584-8.2241l-0.55676-3.7241-7.1665 4.8414c-3.9416 2.6628-9.4165 6.624-12.166 8.8029-4.6873 3.7137-5.0871 4.3944-6.3922 10.883-0.76569 3.8067-1.6119 8.4651-1.8805 10.352l-0.48836 3.4308 3.3805-2.1157c1.8593-1.1636 8.7017-6.0825 15.205-10.931zm26.516 0.82235c-1.6428-0.58629-2.9625 1.3816-2.2215 3.3126 0.61519 1.6032 0.81454 1.5439 1.961-0.58278 0.81425-1.5104 0.90854-2.4986 0.26048-2.7298zm3.4544-5.8875c0.64973-3.3823 0.50324-3.5543-1.6726-1.9633-1.0824 0.79148-1.4835 1.9122-1.07 2.9897 0.97379 2.5376 2.1419 2.1005 2.7426-1.0264zm2.6046-7c1.0328-1.9851 0.92737-2.25-0.89593-2.25-2.4857 0-3.8486 2.8598-1.9285 4.0466 0.75172 0.46459 1.4313 0.75667 1.5103 0.64908s0.6703-1.2081 1.3142-2.4456zm-29.65-10.735c5.2838-3.4898 5.7438-4.0903 5.6732-7.4061-0.04227-1.9846-0.60477-5.2673-1.25-7.2948l-1.1732-3.6864-6.2998 3.8088c-9.9356 6.0071-10.779 7.1093-12.136 15.868-0.65605 4.233-1.4401 8.5496-1.7423 9.5924-0.39773 1.3724 1.0697 0.65615 5.3143-2.5939 3.225-2.4694 8.4512-6.1988 11.614-8.2875zm31.75 6.5672c0-0.50502 0.27314-1.63 0.60699-2.5 0.39239-1.0226 0.05972-1.5818-0.94098-1.5818-1.9918 0-2.8354 1.3949-2.0623 3.4098 0.65412 1.7046 2.3963 2.1932 2.3963 0.67203zm149.3-25.155c1.4194-3.5346 3.3496-7.9583 4.2892-9.8303 1.6295-3.2463 1.6231-3.4662-0.1377-4.7538-1.0154-0.74248-2.2263-0.96991-2.6908-0.50539-1.1452 1.1452-8.7529 23.219-8.7585 25.413-0.0101 4.0028-1.9101 1.2319-4.4569-6.5-2.2988-6.9792-7.9622-20.498-9.038-21.574-0.2716-0.27166-6.3413 2.5033-7.3233 3.348-0.1726 0.14847 1.6467 3.1335 4.0428 6.6333s7.0373 11.79 10.314 18.422l5.9572 12.059 2.6107-8.1425c1.4359-4.4784 3.7721-11.034 5.1915-14.569zm-90.802 13.176c3.6765-2.0877 4.4365-5.5307 1.5607-7.0698-1.1334-0.60657-2.0607-0.73404-2.0607-0.28327 0 1.5713-5.8339 4.2508-9.2551 4.2508-5.4345 0-9.4182-1.8413-10.986-5.0775-1.3808-2.8509-1.4823-2.8861-3.1174-1.0793-2.2057 2.4373-1.2866 4.5852 3.1605 7.3866 7.9384 5.0006 14.193 5.5664 20.698 1.8725zm26.678-7.4592c3.1229-2.9137 8.7479-6.792 12.5-8.6184s9.7806-5.4518 13.397-8.0564 8.0183-5.4822 9.7827-6.3946c4.354-2.2516 3.1118-3.5737-3.3576-3.5737-2.9601 0-5.6605-0.45075-6.001-1.0017-0.37024-0.59907-2.7724-0.74859-5.9765-0.37202-4.858 0.57097-5.5982 0.38893-7.9399-1.9529-1.4204-1.4204-2.5825-3.503-2.5825-4.628s-0.1882-2.0454-0.41821-2.0454-1.0726-0.25111-1.8724-0.55803c-1.099-0.42171-1.3375 0.05228-0.97663 1.9403 0.59403 3.1075-3.9004 8.0687-6.6566 7.3479-1.2906-0.33751-5.1535 2.8105-13.444 10.956-6.3979 6.2862-11.633 11.802-11.633 12.257 0 1.2431 4.3885 3.8758 11.834 7.0993 3.6664 1.5874 6.8912 2.889 7.1662 2.8924s3.0551-2.3777 6.178-5.2914zm-117.35-5.0667c3.1308-1.9605 4.1569-3.1656 3.7028-4.349-0.3455-0.90035-0.89311-3.5698-1.2169-5.9322s-0.98241-4.2952-1.4636-4.2952-3.0812 1.4625-5.7779 3.25c-5.107 3.3852-5.7386 4.7225-7.5629 16.013l-0.60804 3.7631 4.2978-2.8689c2.3638-1.5779 6.2467-4.0893 8.6287-5.5808zm85.622 6.2631c1.4009-0.63828 2.547-1.8979 2.547-2.7992 0-1.2671-0.753-1.5508-3.3204-1.251-2.7496 0.32101-6.6221-0.83779-11.93-3.5698-0.4125-0.21234-0.75 0.98706-0.75 2.6653 0 5.0216 7.3583 7.7317 13.453 4.9548zm91.02-11.196c1.9398-5.3587 3.5269-10.328 3.5269-11.044 0-0.9642-2.1763-1.3004-8.4182-1.3004-9.4717 0-9.1146-0.61536-4.7583 8.2 1.0872 2.2 2.7542 6.38 3.7044 9.2888s1.8831 5.1335 2.073 4.9436 1.9324-4.7297 3.8722-10.088zm-89.416 2.5995c5.734-3.9098 16.985-13.433 18.657-15.791 0.98261-1.3865 3.0241-4.1423 4.5366-6.1241 1.7285-2.2648 2.75-4.8405 2.75-6.9343 0-2.5626 0.34899-3.1972 1.5127-2.7506 2.2112 0.84854 4.3434-1.3595 5.0742-5.2547 0.75911-4.0464-0.6338-6.1411-4.375-6.5792l-2.6418-0.30936 0.30249-9.3906c0.27037-8.3935 0.12697-9.3232-1.3504-8.7563-1.2904 0.49516-1.5168 0.20527-1.0321-1.3216 0.97831-3.0824-1.055-5.9564-3.7269-5.2679-1.9829 0.51102-2.0998 0.38396-0.9437-1.0263 0.96474-1.1769 1.0394-2.1327 0.27778-3.5558-1.6923-3.1622-4.2905-3.5767-6.2377-0.99529-2.0834 2.762-3.5292 1.859-1.7037-1.0641 1.1177-1.7898 1.0248-2.2763-0.68072-3.5656-2.7727-2.096-3.475-1.9173-3.475 0.88437 0 1.3425-0.45 2.7191-1 3.059-0.58012 0.35854-1-0.61741-1-2.3244 0-2.206-0.56308-3.0933-2.25-3.5454-4.7955-1.2851-5.75-0.81856-5.75 2.8107 0 3.8374-1.9338 6.0022-2.1154 2.368-0.26112-5.2269-0.32227-5.3065-4.1924-5.4603-3.7379-0.14848-3.7956-0.09582-3.1445 2.8685 0.50403 2.2948 0.33785 2.9128-0.69223 2.5741-0.74551-0.24508-1.5021-1.692-1.6812-3.2153-0.27051-2.2999-0.69458-2.6708-2.5-2.1865-1.1958 0.32074-2.6361 0.58931-3.2007 0.59682-0.59863 0.00796-0.8622 1.7356-0.6324 4.1453 0.27361 2.8691 0.0525 3.9206-0.72358 3.441-0.61467-0.37989-1.1176-1.7892-1.1176-3.1317 0-2.8254-1.575-3.1356-4.1391-0.81511-1.4109 1.2768-1.5689 2.0512-0.7361 3.6074 0.7476 1.3969 0.7471 2.2948-0.0017 3.0436s-1.3079 0.39774-1.8972-1.1953c-0.71489-1.9325-1.0102-2.0464-2.052-0.79115-0.89472 1.0781-0.93905 2.1971-0.16743 4.2266 1.2597 3.3132 0.34668 4.6864-1.4669 2.2062-1.1908-1.6284-1.3401-1.5474-1.8253 0.99093-0.29066 1.5205-0.08905 3.5855 0.44801 4.589 0.66324 1.2393 0.6087 2.2677-0.17002 3.206-0.63057 0.75979-1.2243 3.7685-1.3194 6.6861-0.1699 5.2124-0.22937 5.3101-3.4229 5.618-2.6725 0.25768-3.25 0.73794-3.25 2.703 0 4.411 2.044 7.3547 5.3332 7.6805 2.9378 0.29103 3.1102 0.57329 4.2977 7.0371 1.4976 8.1518 3.3697 11.507 9.0874 16.287 5.6355 4.7107 18.243 12.481 20.236 12.473 0.85029-0.00362 2.6966-0.79112 4.1029-1.75zm-14.758-11.493c-2.1395-1.7875-3.8961-3.7-3.9036-4.25s1.8129-1.6181 4.0454-2.3736c3.285-1.1116 4.9579-1.1434 8.7731-0.16678 2.5928 0.66373 5.4934 1.3212 6.4458 1.4609 2.9181 0.42829 2.6714 2.4675-0.67703 5.5954-4.4929 4.197-9.4493 4.1072-14.684-0.26597zm13.201-0.75c0.38867-0.62888-1.7234-0.97392-5.691-0.92971-4.451 0.04958-5.72 0.32339-4.309 0.92971 2.7975 1.2021 9.257 1.2021 10 0zm-4-4c-2.9186-1.2542-9.4407-1.2542-7.5 0 0.825 0.53316 3.3 0.94464 5.5 0.9144 3.1427-0.04319 3.5713-0.23917 2-0.9144zm-4.1664-7.7727c-0.87906-0.55924-0.81747-2.0874 0.25-6.2026 0.77905-3.0033 1.4164-6.4875 1.4164-7.7426s0.51268-2.2821 1.1393-2.2821c1.1337 0 0.72134 6.6662-0.72565 11.732-0.50817 1.7791-0.10743 2.4337 1.9744 3.2252 1.4366 0.54619 2.612 1.2292 2.612 1.5178 0 0.79607-5.3374 0.59756-6.6664-0.24794zm-30.206-12.988c-1.3657-2.5519-0.33186-3.5857 1.6269-1.6269 1.0529 1.0529 1.1977 1.8356 0.47359 2.5598s-1.3664 0.43884-2.1005-0.93281zm68.044 0.10562c0.19293-1.0018 1.1331-1.9722 2.0893-2.1563 2.4204-0.46613 2.1785 1.506-0.35078 2.8596-1.7893 0.95762-2.0389 0.85664-1.7385-0.70333zm-24.726-2.4316c-1.0305-1.6674 1.2872-3.5795 2.6667-2.2 1.1539 1.1539 0.43172 3.2871-1.1129 3.2871-0.48508 0-1.1843-0.48921-1.5538-1.0871zm-25.446-2.4129c0-0.825 0.675-1.5 1.5-1.5s1.5 0.675 1.5 1.5-0.675 1.5-1.5 1.5-1.5-0.675-1.5-1.5zm25.319-5.9735c0.18535-0.56456 2.4857-1.1655 5.1118-1.3355 3.4725-0.22471 4.6614 0.03119 4.3591 0.93821-0.2473 0.74191-2.3184 1.283-5.1118 1.3355-2.7996 0.05262-4.56-0.32626-4.3591-0.93821zm-29.319-2.3575c0-1.3052 4.5447-3.4036 6.5357-3.0176 3.1291 0.60655 2.7656 2.5465-0.39036 2.0833-1.5997-0.23478-3.2133 0.06638-3.5859 0.66924-0.79449 1.2855-2.5594 1.4683-2.5594 0.2651zm-63.654 37.909 3.8458-2.3888-0.6922-5.5947c-0.6709-5.4226-1.8532-8.0947-3.5817-8.0947-0.90574 0-4.2162 10.118-5.3441 16.334-0.55122 3.0377-0.42343 3.6573 0.61535 2.9835 0.72107-0.46768 3.0417-1.9253 5.1569-3.2392zm180.4-5.7085c1.5696-0.42063 2.25-1.3561 2.25-3.0933 0-1.86-0.4004-2.3367-1.5818-1.8834-0.87 0.33385-4.47 0.60699-8 0.60699-5.6585 0-6.4182 0.22686-6.4182 1.9167 0 1.0542 0.5625 2.1436 1.25 2.421 1.7904 0.72244 9.8467 0.74306 12.5 0.03199zm18.067-6.8697c-0.0053-1.65-0.5065-4.4622-1.1138-6.2494-0.8319-2.4482-0.8081-3.5454 0.0966-4.45 0.9342-0.9342 1.2006-0.7014 1.2006 1.049 0 1.2373 0.6571 3.5203 1.4601 5.0732s1.1689 3.1148 0.813 3.4707-0.7093 1.4904-0.7852 2.5212c-0.1118 1.5178 0.7965 1.998 4.7784 2.5262 2.7041 0.35871 5.4379 0.22515 6.0751-0.2968 1.6372-1.341 4.5866-1.5892 8.7119-0.73289 2.742 0.56913 4.8314 0.17228 9.1513-1.7382 6.1223-2.7076 7.4494-4.8228 5.7802-9.2132-0.5864-1.5423-1.0941-6.2143-1.1282-10.382-0.053-6.4793-0.397-7.9403-2.3725-10.078-2.6665-2.8851-3.1084-5.0609-2.0581-10.132 0.4137-1.9974 0.8467-7.6224 0.9623-12.5 0.1843-7.7825-0.0715-9.2947-2.0891-12.35-1.3846-2.097-2.2992-4.9937-2.2992-7.2821 0-8.1244-3.8755-12.856-11.5-14.04-2.8942-0.44943-4.8293-1.5908-7-4.1287-5.3225-6.223-19.422-8.8849-24.639-4.6517l-2.3608 1.9156 3 0.64078c1.65 0.35244 4.867 1.1112 7.1489 1.686s5.4826 0.75231 7.1127 0.39428c4.1881-0.91987 10.058 2.0807 11.684 5.9725 0.955 2.2857 2.32 3.388 5.3014 4.2813 5.5092 1.6506 6.7515 3.5069 6.7587 10.099 0.0042 3.8006 0.6048 6.4808 1.8727 8.3568 1.3168 1.9484 1.6821 3.6839 1.2402 5.8932-0.3591 1.7957-0.1459 3.7103 0.4998 4.4883 0.8639 1.0409 0.7733 1.3568-0.3894 1.3568-2.0157 0-2.812-2.3368-2.0665-6.0646 0.4854-2.4271 0.0681-3.6068-2.0626-5.8308-2.3291-2.431-2.5357-3.1443-1.6136-5.5698 0.5817-1.5299 0.7854-4.2326 0.4527-6.006-0.5254-2.8007-1.218-3.4086-5.2721-4.6266-3.637-1.0927-4.9738-2.0982-6.0559-4.5549-1.2429-2.8218-4.6115-5.3474-7.1321-5.3474-0.5097 0 1.0278 1.9544 3.4165 4.3432 6.7765 6.7765 9.0746 13.662 9.2314 27.657 0.0745 6.6576 0.641 12.597 1.3452 14.105 1.0364 2.2194 0.8963 3.2323-0.9469 6.8452-1.9737 3.8689-2.0258 4.3922-0.5944 5.9739 2.1607 2.3876 2.0149 3.1604-1.5168 8.0357l-3.0856 4.2596-2.864-3.3596c-1.9187-2.2508-2.6721-4.0197-2.2828-5.3596 0.3703-1.2744-1.5633 0.03542-5.3294 3.6101-3.2508 3.0855-7.3322 6.3452-9.0697 7.2437-3.482 1.8006-3.5112 2.1842-1.1254 14.782l1.0673 5.6355 4.8008-2.1355c4.1984-1.8675 4.7996-2.512 4.7911-5.1355zm13.033-8.5013c-1.5855-4.7849-1.5727-5.0807 0.3226-7.4902 1.0852-1.3797 2.4602-2.5085 3.0556-2.5085s0.25 0.91982-0.7674 2.044c-1.5716 1.7366-1.6908 2.6014-0.7926 5.75 0.5816 2.0383 1.3924 4.4935 1.8019 5.456 0.4994 1.1739 0.2978 1.7468-0.6125 1.7402-0.7464-0.00541-2.0998-2.2516-3.0076-4.9915zm9.7448-2.9998c-0.3773-2.8442-0.2272-5.8161 0.348-6.8908 0.7615-1.423 0.498-2.8428-1.0671-5.7489-1.7028-3.162-1.8837-4.356-1.0014-6.6092 1.6242-4.1478 2.9427-3.3011 2.3972 1.5393-0.3561 3.1591-0.0602 4.6406 1.1228 5.6224 1.8564 1.5407 2.0924 4.2022 0.5125 5.782-0.6016 0.60158-0.9163 1.9291-0.6994 2.95 0.2757 1.2982 0.8022 0.65375 1.7512-2.1438 0.7463-2.2 2.0736-4.5351 2.9495-5.1891 1.3229-0.98776 1.3809-1.5357 0.3425-3.2364-1.5025-2.461-1.6313-5.0745-0.25-5.0745 0.55 0 1 0.68111 1 1.5136s0.5474 2.3901 1.2165 3.4615c1.0169 1.6283 0.8513 2.4419-1.0088 4.9579-2.4004 3.2466-2.9507 6.3931-1.6734 9.567 0.794 1.973 0.7756 1.9743-1.3647 0.09501l-2.1696-1.905v3.155c0 4.9658-1.6724 3.6824-2.4058-1.8461zm-2.3426-28.253c-2.4562-2.6401-3.961-9.1896-2.3414-10.191 0.6682-0.41296 1.0898 0.23467 1.0898 1.674 0 1.2912 0.8932 4.0995 1.9849 6.2408 2.3573 4.6236 2.1241 5.3471-0.7333 2.2757zm-56.575 40.385c-0.3155-1.5777-0.2311-4.1495 0.1877-5.7153 0.7018-2.6243 0.307-3.1884-5.0513-7.2163-3.197-2.4032-5.8319-4.6688-5.8553-5.0347s-1.8068-2.6747-3.9629-5.1308l-3.9202-4.4655-3.0093 2.2248-3.0093 2.2248-1.8384-3.7594c-1.0111-2.0676-2.4591-4.7353-3.2177-5.9281-1.1782-1.8526-1.1694-2.4218 0.06053-3.9037 0.93688-1.1289 1.4398-4.0728 1.4398-8.4275 0-7.1326 1.3718-10.108 4.3066-9.3403 1.4573 0.38109 1.9158-0.70794 2.8821-6.8444 0.87409-5.5511 0.86935-7.4755-0.01978-8.0411-1.9288-1.227-2.2878-0.94562-4.1971 3.2885-1.0076 2.2345-2.9884 5.047-4.4019 6.25-2.2971 1.9551-2.5379 2.8023-2.2686 7.9814 0.19524 3.7556-0.23998 6.879-1.237 8.8776-0.84603 1.6959-1.2825 4.1026-0.96985 5.3482 0.77477 3.0869-2.0137 8.1284-5.4901 9.9262-2.3844 1.233-4.8596 4.4249-3.8778 5.0005 3.3894 1.987 5.5103 2.1728 8.0433 0.70441 1.5234-0.88308 2.555-2.1653 2.2925-2.8494-0.4945-1.2886 1.9221-4.3016 3.4502-4.3016 1.6739 0 2.0996 2.0198 0.55097 2.614-0.85986 0.32996-1.5634 1.1961-1.5634 1.9248s-1.2375 2.2066-2.75 3.2843c-2.3125 1.6477-2.7439 2.6715-2.7118 6.4355 0.03193 3.744 0.60433 5.0442 3.5 7.9501 1.904 1.9107 4.16 4.5098 5.0134 5.7757 1.4208 2.1077 1.8488 2.2036 5.0781 1.1378 2.8726-0.94805 4.2171-0.8753 7.2512 0.39239 2.3434 0.97915 4.9723 1.3222 7.0894 0.92499 1.8507-0.3472 4.1895-0.15182 5.1974 0.43416 2.9387 1.7086 3.62 1.3142 3.0087-1.7422zm-19.004-2.8521c-0.35787-0.57904 0.01938-1.6089 0.83832-2.2886s1.489-2.2156 1.489-3.4133c0-2.1923 1.6858-4.5776 3.2352-4.5776 0.4593 0 0.4301 0.7875-0.0649 1.75s-0.7382 2.2-0.5405 2.75c0.5413 1.5054-4.1896 7.0212-4.9571 5.7794zm-8.6727-6.771c0-0.82034 0.88393-2.0435 1.9643-2.7182 1.332-0.83182 1.7906-1.9188 1.4247-3.3766-0.38733-1.5432 0.23022-2.7555 2.1884-4.2958 3.2207-2.5334 4.5135-1.9806 1.9619 0.8388-1.0003 1.1054-1.5099 2.6774-1.1619 3.5844 0.39382 1.0263-0.44573 2.6812-2.3018 4.5372-3.299 3.299-4.0756 3.5715-4.0756 1.4302zm-12 7.5506c0-1.0675-0.48921-2.2433-1.0871-2.6129-1.5291-0.94503-3.2987 1.1059-2.577 2.9866 0.8572 2.2338 3.6642 1.9475 3.6642-0.37376zm56.75 0.44142c2.5875-0.47058 3.25-1.0748 3.25-2.964 0-1.3051-0.2689-3.0736-0.5975-3.93-0.5385-1.4032-0.8904-1.4056-3.5627-0.02367-1.6309 0.84336-5.187 1.584-7.9025 1.6458-4.3598 0.09931-4.9373 0.36543-4.9373 2.2752 0 1.1895 0.1923 2.3503 0.4274 2.5794 0.7572 0.7383 9.9705 1.0268 13.323 0.41711zm-127.75-1.5719c0-1.4801-2.6222-3.973-3.381-3.2143-1.4525 1.4525-0.53961 4.2857 1.381 4.2857 1.1 0 2-0.48214 2-1.0714zm-46.606-7.7878c1.2866-4.5137-0.1154-6.5313-4.648-6.6887-4.9241-0.17099-6.6671 2.867-4.2863 7.4709 1.404 2.7151 2.1277 3.1489 4.8146 2.8862 2.6263-0.25677 3.3244-0.87841 4.1197-3.6684zm-12.144-5.5938c2.9268-3.5239 3.3305-4.5469 1.794-4.5469-0.5258 0-3.186-1.3148-5.9115-2.9219-5.3148-3.1337-6.1325-3.0534-6.1325 0.6021 0 1.2908-0.52719 3.1911-1.1715 4.2228-0.98669 1.5799-0.63989 2.5472 2.1979 6.1302l3.3694 4.2542 1.5521-2.2148c0.85366-1.2181 2.7896-3.7047 4.3021-5.5258zm20.328-0.98143c-0.72658-3.873-1.2435-4.1308-4.9225-2.4545l-2.4383 1.111 3.0762 4.5581c2.8674 4.2486 3.1399 4.4153 4.0148 2.4545 0.51625-1.157 0.63763-3.708 0.26974-5.6691zm168.94 3.4274c12.081-6.3552 21.962-16.407 21.425-21.797-0.3589-3.6052 0.1191-5.1958 1.5615-5.1958 0.825 0 1.5 0.6375 1.5 1.4167s0.5625 1.6449 1.25 1.9239c0.8685 0.35238 0.9225 0.75936 0.1771 1.3333-0.5902 0.45437-1.3635 1.6136-1.7187 2.5761-0.4613 1.2504-0.1407 1.75 1.123 1.75 4.2431 0 5.927-6.9886 2.1686-9-1.3334-0.71359-2-2.0938-2-4.1408 0-5.4364-3.0425-15.022-6.4676-20.376-3.985-6.2295-12.777-13.647-18.985-16.018-3.8101-1.4551-5.5582-1.5563-11.54-0.66841-16.913 2.5102-26.546 12.624-27.241 28.599-0.18674 4.2908-0.37721 4.5945-2.7331 4.3584-2.3118-0.23164-2.5591 0.11633-2.8398 3.9963-0.28667 3.9622-0.13598 4.25 2.225 4.25 2.6253 0 2.4542-0.27071 8.0615 12.759 2.2053 5.1245 9.9653 12.632 15.789 15.276 6.183 2.8067 11.507 2.5026 18.246-1.0422zm-21.441-6.6277c-1.1399-1.4492-2.0726-3.0242-2.0726-3.5s-0.1125-1.1597-0.25-1.5198c-0.2588-0.67774 1.3591-1.1457 7.1134-2.0576 3.1154-0.4937 10.566 1.1524 12.451 2.7509 0.4481 0.37995-0.9666 2.1017-3.1439 3.8261-5.2665 4.1712-11.049 4.3764-14.098 0.50042zm10.927-0.36514c1.1737-0.7585 0.9159-0.97271-1.1849-0.98469-1.4767-0.00842-3.9016-0.4779-5.3887-1.0433-3.2073-1.2194-4.2001-0.60916-2.4465 1.5038 1.4141 1.7038 6.7178 2.012 9.0201 0.52417zm0-4c-0.825-0.53316-3.075-0.93141-5-0.88501-3.2069 0.07731-3.2907 0.15141-1 0.88501 1.375 0.44035 3.625 0.83861 5 0.88501 1.9655 0.06633 2.1793-0.12287 1-0.88501zm-4.6477-5.9933c-3.1358-1.2652-3.3984-2.2028-1.8416-6.5728 0.7709-2.1636 1.4213-5.8839 1.4454-8.2672 0.0305-3.0137 0.4246-4.2034 1.2939-3.9066 1.4004 0.47802 1.556 4.9278 0.4162 11.9-0.7523 4.6022-0.7241 4.6683 2.2746 5.3269 1.6699 0.36678 3.293 1.0823 3.6068 1.59 0.7097 1.1484-4.2959 1.0996-7.1953-0.07025zm14.77-12.91c-1.6134-1.0219-0.6506-3.0965 1.4371-3.0965 0.7926 0 1.441 0.9 1.441 2 0 2.1711-0.7378 2.4522-2.8781 1.0965zm-42.122-1.5375c0-0.24254 0.45-0.7191 1-1.059s1-0.14148 1 0.44098-0.45 1.059-1 1.059-1-0.19844-1-0.44098zm15.054-2.4572c-0.9293-1.7364-0.8422-2.246 0.4696-2.7494 2.5831-0.99122 4.2099 1.3422 2.2807 3.2714-1.4794 1.4794-1.7018 1.4372-2.7503-0.52198zm23.945-7.3328c0.0017-2.0091 12.023-2.2644 12.67-0.26905 0.1937 0.59735-2.292 1-6.1734 1-3.5737 0-6.4974-0.32893-6.497-0.73095zm-20.499-0.74433c-1.1-0.45909-3.0125-0.60368-4.25-0.3213-2.9766 0.67919-2.9387-1.4924 0.039-2.2398 2.6331-0.66086 7.711 0.99314 7.711 2.5117 0 1.1916-0.7385 1.202-3.5 0.04947zm52.253 29.333c-2.3922-5.2503-5.9503-0.66189-3.6998 4.7712l1.2348 2.9811 1.7695-2.6975c1.3997-2.1337 1.5451-3.1902 0.6955-5.0548zm-197.02 1.6752c4.4791-2.0332 8.2653-6.9559 11.638-15.131 4.4943-10.894 8.1695-17.401 9.8275-17.401 2.162 0 2.0288 3.268-0.22501 5.5218-1.1796 1.1796-1.8436 2.4448-1.4754 2.8115s1.5528-0.42298 2.6324-1.7548c1.3936-1.7191 1.8763-3.6044 1.6639-6.5-0.2502-3.4115-0.68266-4.1328-2.6443-4.4106-1.8954-0.26835-2.2174-0.74779-1.679-2.5 1.0179-3.3122 1.8669-21.166 1.1436-24.048-0.43233-1.7226-1.123-2.3638-2.1296-1.9776-0.8194 0.31443-1.4898 0.07354-1.4898-0.5353s-0.675-1.107-1.5-1.107-1.5-0.8449-1.5-1.8776-0.68587-2.4468-1.5242-3.1425-1.2836-1.5055-0.98956-1.7995 1.9608 0.7826 3.7041 2.3925l3.1695 2.9271-2.1264-3.5c-3.0759-5.063-13.082-11.619-19.891-13.033-10.813-2.2448-25.058 0.87007-32.662 7.1426-7.8204 6.4504-11.124 15.086-10.543 27.558 0.33292 7.1468 0.19773 7.8214-1.6371 8.1686-3.2976 0.62404-4.5 2.2157-4.5 5.957 0 4.498 2.4151 7.2063 6.426 7.2063 2.9009 0 3.373 0.53597 6.8366 7.7619 2.0463 4.269 5.1088 9.4462 6.8057 11.505 3.4909 4.2351 10.801 9.5583 14.773 10.758 4.9218 1.4868 13.48 1.0122 17.896-0.99243zm-14.415-9.7826c-1.0457-2.9746-5.5918-7.25-7.7091-7.25-3.3838 0-0.45912-1.589 5.2134-2.8324 7.6594-1.679 9.6558-1.4742 12.991 1.3324 1.6341 1.375 3.7487 2.5 4.6992 2.5 1.4866 0 1.5383 0.22867 0.37032 1.636-4.4507 5.3627-14.278 8.2758-15.565 4.614zm9.2994-1.935c1.2596-0.48336 0.17998-1.0468-3.6682-1.9143-6.0258-1.3585-6.8458-1.1812-4.9732 1.0751 1.3233 1.5945 5.5927 2.0091 8.6414 0.83922zm-1.0625-5.8468c-2.1408-1.6192-7.5589-2.0074-7.5589-0.54152 0 1.1038 2.384 1.81 6.5 1.9255 2.848 0.07993 2.9017 0.00981 1.0589-1.384zm-5.0139-8.3954c-0.74335-1.2028 0.11486-1.6586 4.67-2.4802 2.0432-0.36854 3.9524-1.0543 4.2427-1.524s-0.36895-3.6608-1.4649-7.0915c-2.2022-6.8935-2.509-9.9771-0.99268-9.9771 0.55 0 1 0.65786 1 1.4619s1.0693 4.8292 2.3763 8.9448l2.3762 7.4829-3.1262 1.4303c-4.5405 2.0773-8.4182 2.8258-9.0813 1.753zm-35.795-8.7621c-2.3956-0.62605-2.2134-2.3107 0.25-2.3107 1.1111 0 2 0.66667 2 1.5 0 0.825-0.1125 1.4478-0.25 1.384s-1.0375-0.3218-2-0.57333zm23.82-8.1974c-0.84367-1.3651 2.2011-3.4151 4.0299-2.7134 1.317 0.50537 1.391 0.90605 0.39029 2.1119-1.3761 1.6581-3.5816 1.9582-4.4202 0.60148zm26.097 0.22002c-1.3596-1.3596-0.59454-2.3333 1.8333-2.3333 2.793 0 3.3527 1.4588 0.91821 2.393-1.9586 0.75158-1.9399 0.75199-2.7515-0.05968zm-47.425-8.9318c0.15804-2.0595 0.7538-3.9001 1.3239-4.0901 1.2779-0.42595 0.61601 6.4582-0.69904 7.2709-0.50503 0.31212-0.78396-1.1077-0.62487-3.1808zm16.219-1.3382c0.76006-1.2298 6.4732-4.0633 8.1928-4.0633 2.0196 0 1.6233 1.995-0.40364 2.0318-0.9625 0.0175-2.6235 0.6925-3.6911 1.5-2.1531 1.6285-5.0046 1.9983-4.098 0.53152zm35.039-0.06332c-0.33992-0.55-1.829-1.0316-3.309-1.0703-2.3619-0.06168-2.4464-0.16723-0.69098-0.86296 2.2824-0.90462 5.711 0.06619 6.2818 1.7788 0.47137 1.4141-1.424 1.5424-2.2818 0.1545zm-49.894-10.416c0.33422-0.87096 1.047-1.5836 1.584-1.5836 1.3144 0 0.49134 2.2728-1.0035 2.7711-0.73075 0.24357-0.95424-0.21359-0.58051-1.1875zm2.4255-3.7745c-0.01749-0.93004 0.44814-1.9876 1.0347-2.3501 1.7626-1.0893 2.0097 0.05904 0.45494 2.1141-1.28 1.6919-1.4617 1.7207-1.4897 0.23602zm11.968-4.499c0-0.55 0.9-1.8145 2-2.81s2-1.36 2-0.80998-0.9 1.8145-2 2.81-2 1.36-2 0.80998zm-8-1.195c0-0.48674 1.125-1.6221 2.5-2.523 2.8967-1.898 3.3622-0.68226 0.67126 1.753-2.0283 1.8356-3.1713 2.1131-3.1713 0.77zm16.441-4.5408c1.0676-0.86582 2.4176-1.603 3-1.6381s2.5214-0.20779 4.3089-0.38373 3.25 0.07779 3.25 0.56384c0 0.88464-0.33923 0.98256-5 1.4433-1.375 0.13594-3.625 0.54904-5 0.918-2.4079 0.64612-2.4285 0.61283-0.55887-0.90338zm-8.4411-0.46723c0-0.49116 0.73865-1.1765 1.6414-1.5229 1.3725-0.52667 1.4343-0.38034 0.37756 0.89301-1.4401 1.7352-2.019 1.9158-2.019 0.62988zm32.481-1.1377c-0.37535-0.60733-2.1453-0.76289-4.309-0.37871-2.6546 0.47132-3.3863 0.34648-2.6408-0.45057 2.049-2.1906 6.8445-2.2841 9.4688-0.18461 2.4578 1.9663 2.463 2.0005 0.30902 2.0223-1.205 0.01223-2.4776-0.44157-2.828-1.0084zm-23.715-3.5887c1.9469-1.4784 16.258-1.9613 14.684-0.49555-0.5225 0.48678-4.4305 1.0937-8.6844 1.3488-6.546 0.39249-7.4679 0.26139-6-0.85326zm147.72 78.636c0.98527-1.5942-0.59966-8.017-1.9783-8.017-2.7804 0-3.7151 2.705-2.0483 5.9282 1.626 3.1443 2.9499 3.831 4.0266 2.0888zm-18.357-3.17c1.9968-2.3024 2.1624-3.1455 1.2706-6.4685-0.56871-2.119-0.57217-2.1187-2.9579 0.26704-1.8506 1.8506-2.2542 3.0604-1.792 5.3715 0.71144 3.5572 1.045 3.6368 3.4793 0.82994zm-2.1629-8.7906c2.5672-4.7969 0.97258-13.056-2.5208-13.056-2.5437 0-4.4489-3.1245-4.4643-7.3214-0.00842-2.2982-0.34592-4.6737-0.75-5.2789-2.0591-3.0838-8.587-4.3519-12.266-2.3828-1.5433 0.82595-2.2098 0.54427-3.5493-1.5-1.6956-2.5878-5.3402-3.2978-9.0873-1.7701-1.3754 0.56073-0.83745 0.87214 2.1595 1.25 3.1154 0.39279 4.2798 1.1074 5.3059 3.2561 1.1807 2.4723 1.6935 2.6923 5.031 2.1586 3.1477-0.50334 4.1336-0.17692 6.4441 2.1335 1.5003 1.5003 2.7278 3.7914 2.7278 5.0914s0.50246 2.3636 1.1166 2.3636c0.67653 0 0.91116 1.0746 0.59535 2.7266-0.39125 2.0467 0.19947 3.5474 2.369 6.0183 1.5896 1.8105 3.1705 4.4085 3.513 5.7734 0.74818 2.981 1.9647 3.1749 3.3758 0.53808zm5.9948-9.7594c0.04577-5.4287-1.4272-8.5484-5.0451-10.686-1.7641-1.0421-3.7468-3.664-5.0347-6.6578-2.705-6.288-6.7751-8.9536-13.671-8.9536-7.7071 0-8.7166 0.70603-5.2181 3.6498 2.4832 2.0895 3.2575 2.2852 5.1128 1.2922 1.6609-0.88888 3.1135-0.89242 6.0431-0.01471 5.4571 1.635 7.3409 4.9859 7.7846 13.848 0.03511 0.70111 1.1673 1.6943 2.5159 2.207 3.4764 1.3217 5.8672 6.4053 5.1214 10.89-0.59569 3.5817-0.58439 3.5963 0.87607 1.1285 0.81374-1.375 1.4955-4.3913 1.515-6.703zm84.549-12.047c-0.5124-2.7545-1.034-3.25-3.4217-3.25h-2.8172l3.1125 9.25 3.1125 9.25 0.3092-6c0.1701-3.3 0.0372-7.4625-0.2953-9.25zm-101.51 9.75c0-0.55-0.47656-1-1.059-1s-0.7809 0.45-0.44098 1 0.81648 1 1.059 1 0.44098-0.45 0.44098-1zm-3.2-4.2c1.83-1.83 1.448-3.4075-1.2538-5.1778-1.8421-1.207-3.0864-1.3673-4.9913-0.64306-3.411 1.2969-5.2132 0.43982-6.433-3.0593-0.81237-2.3304-1.6093-2.9198-3.9474-2.9198-3.3746 0-6.6886 2.9844-4.2313 3.8104 0.79375 0.26681 2.5017 1.5436 3.7955 2.8374s3.3443 2.3641 4.5568 2.3785 4.0046 0.878 6.2046 1.9191c4.928 2.332 4.8353 2.3194 6.3 0.85472zm-21.394-2.6683c2.567-0.55793 2.7205-0.78563 1.3153-1.9499-2.2559-1.8691-8.1194-1.1354-8.5368 1.0682-0.35468 1.8723 1.5781 2.1083 7.2215 0.88169zm48.69-4.3817c2.9209-5.8094 4.8037-7.75 7.5194-7.75 1.2681 0 2.8858-0.7542 3.595-1.676s3.8604-4.2968 7.0026-7.5 5.3923-5.8215 5-5.8184c-3.187 0.02492-8.6642 2.6454-11.54 5.5212-1.9103 1.9103-4.209 3.4732-5.1084 3.4732-2.6386 0-6.366 2.9333-8.709 6.8535-1.1987 2.0056-3.0726 4.6458-4.1644 5.8672-1.6372 1.8316-1.7626 2.4887-0.71579 3.75 2.2894 2.7586 4.8593 1.7766 7.1205-2.7207zm-52.281-3.4659c0.17329-1.2187 1.6358-3.3272 3.25-4.6854s2.9349-2.7236 2.9349-3.0341c0-1.3526-8.4757-0.444-10.171 1.0904-1.8033 1.632-2.5323 7.3082-1.1199 8.7205 1.4629 1.4629 4.7949 0.09816 5.1062-2.0914zm44.935 0.83101c0.9625-1.0367 2.875-3.7814 4.25-6.0994 1.4571-2.4564 4.0644-5.0159 6.25-6.1355 2.0625-1.0565 3.75-1.6295 3.75-1.2733s2.015-1.2096 4.4777-3.4797c2.4777-2.2839 5.4926-4.1342 6.75-4.1427 1.2498-0.00842 2.9097-0.4188 3.6888-0.91194 0.8177-0.51757 2.3868-0.52774 3.7116-0.02405 1.5581 0.59238 3.1904 0.40553 5.0835-0.5819 1.5336-0.79996 4.6868-1.4572 7.007-1.4606 3.3128-0.00484 4.0967-0.32404 3.6505-1.4866-0.3124-0.81425-2.2108-1.9368-4.2186-2.4944-8.82-2.4498-19.265 0.06028-22.062 5.302-1.2346 2.3134-1.8611 2.5739-5 2.0789-4.3915-0.6926-9.2305 2.2366-13.095 7.9266-1.4216 2.0932-4.0063 4.7059-5.7438 5.8061-3.6411 2.3054-4.946 5.3175-3.21 7.4092 1.597 1.9243 2.6079 1.8314 4.7102-0.43285zm82.684-3.3651c-0.3855-1.2375-1.1258-3.375-1.6451-4.75l-0.9441-2.5-1.4223 3.3648c-2.1326 5.045-1.8403 6.1352 1.645 6.1352 2.722 0 2.9885-0.25334 2.3665-2.25zm-6.3812-3.3887c1.2648-3.3266 0.8934-3.6715-2.546-2.3639-2.6865 1.0214-2.7164 1.1134-0.9837 3.028 2.269 2.5072 2.3282 2.496 3.5297-0.66412zm0.3121-5.3246c1.671-0.59664 1.5332-0.94484-1.3267-3.3513-1.7554-1.477-3.5508-2.6855-3.9898-2.6855-0.7024 0-2.0483 4.6942-2.0483 7.144 0 0.84705 3.2668 0.35589 7.3648-1.1073zm-9.0697-2.7868c0.2906-1.5125 0.4555-2.7948 0.3666-2.8494s-1.7346 0.32428-3.657 0.84216l-3.4953 0.94159 2.3561 1.9078c3.1377 2.5408 3.8041 2.414 4.4296-0.84216zm-30.08-3.25c1.3969 0 3.0999-0.675 3.7846-1.5 1.0213-1.2306 0.9475-1.5-0.4108-1.5-1.9222 0-10.169 4.0848-13.089 6.4832-1.1 0.90351 0.0645 0.48941 2.5879-0.92023s5.7307-2.563 7.1275-2.563zm20.769 0.25c-0.0393-1.9247-1.7854-3.2637-3.432-2.6318-1.6092 0.61751-1.5514 0.8167 0.58 1.9984 2.8408 1.5751 2.8714 1.5818 2.852 0.63342zm7.0153-1.2017c2.3504-0.70728 2.2728-0.79828-1.2966-1.5204-3.9992-0.80902-5.339-0.36538-4.2445 1.4055 0.7368 1.1922 1.8822 1.2159 5.5411 0.11486zm-17.8-1.2483c-0.9333-0.93333-1.4667-0.93333-2.4 0s-0.6667 1.2 1.2 1.2 2.1333-0.26667 1.2-1.2zm6.0144-2.5619c-1.8789-0.62629-4.4415 0.58539-3.7171 1.7575 0.4114 0.66565 1.3693 0.61095 2.8107-0.16049 1.4147-0.75712 1.7347-1.3209 0.9064-1.597z"/>
 </g>
</svg>
